<svg xmlns="http://www.w3.org/2000/svg" width="316" height="182" fill="none">
    <g clip-path="url(#a)">
        <g opacity=".8">
            <rect width="35.93" height="41.06" x="38.67" y="12" fill="#E6E6E6" rx="1.71" />
            <g filter="url(#b)">
                <path fill="#fff" d="M42.95 16.28h27.37v32.5H42.95z" />
                <path fill="#fff" d="M44.88 18.2H68.4v28.66H44.88z" />
                <path stroke="#E7E7E7" stroke-width=".43" d="M44.88 18.2H68.4v28.66H44.88z" />
                <g clip-path="url(#c)">
                    <mask id="d" width="21" height="21" x="46" y="22" maskUnits="userSpaceOnUse"
                        style="mask-type:alpha">
                        <path fill="#000"
                            d="M59.2 26.11c-.88 0-1.75.19-2.56.54a6.36 6.36 0 0 0-7.1 1.34 6.42 6.42 0 0 0 7.1 10.42 6.36 6.36 0 0 0 7.1-1.34A6.42 6.42 0 0 0 59.2 26.1Zm-5.13 11.55a5.13 5.13 0 1 1 1.13-10.13 6.41 6.41 0 0 0 0 10c-.37.09-.75.13-1.13.13Zm5.13-5.13a5.13 5.13 0 0 1-2.56 4.44 5.13 5.13 0 0 1 0-8.88 5.13 5.13 0 0 1 2.56 4.44Zm0 5.13c-.38 0-.75-.04-1.12-.13a6.41 6.41 0 0 0 0-10 5.07 5.07 0 0 1 4.75 1.37 5.13 5.13 0 0 1-3.63 8.76Z" />
                    </mask>
                    <g mask="url(#d)">
                        <path fill="#000" d="M46.37 22.27H66.9V42.8H46.37z" />
                    </g>
                </g>
            </g>
            <rect width="75.28" height="10.13" x="19" y="54.34" fill="#2565D9" rx="1.71" />
            <path fill="#fff"
                d="M23.3 61.98c-.97 0-1.57-.67-1.57-1.72 0-1.05.62-1.7 1.56-1.7.84 0 1.36.54 1.41 1.16v.02h-.64v-.03a.74.74 0 0 0-.77-.6c-.52 0-.87.45-.87 1.15 0 .73.35 1.15.88 1.15.41 0 .68-.24.76-.6v-.03h.65v.03c-.07.66-.62 1.16-1.41 1.16Zm1.92-.07v-4.52h.68v1.77h.01c.18-.39.53-.6 1.02-.6.7 0 1.17.52 1.17 1.31v2.04h-.68V60c0-.55-.27-.88-.75-.88-.46 0-.77.36-.77.87v1.9h-.68Zm4.5.06c-.65 0-1.1-.4-1.1-1 0-.58.45-.93 1.23-.97l.9-.06v-.25c0-.36-.24-.58-.66-.58-.39 0-.63.19-.69.45v.03h-.64v-.04c.05-.56.54-1 1.35-1 .8 0 1.32.43 1.32 1.09v2.27h-.68v-.52h-.01c-.2.35-.58.58-1.01.58Zm-.41-1.01c0 .29.24.47.6.47.48 0 .84-.33.84-.76v-.25l-.8.05c-.41.02-.64.2-.64.48Zm2.78.95v-3.3h.67v.57h.02c.1-.39.38-.63.76-.63.1 0 .18.02.23.03v.63a.97.97 0 0 0-.3-.04c-.44 0-.7.28-.7.77v1.97h-.68Zm3.4.07c-.65 0-.96-.28-.96-.94v-1.89h-.48v-.54h.48v-.85h.69v.85h.62v.54h-.62V61c0 .34.15.44.43.44l.19-.02v.53l-.35.02Zm.93-1.6v-.61h2.02v.61h-2.02Zm2.79 0v-.61h2.01v.61h-2.01Zm3.62 1.53-1.19-3.3h.72l.83 2.64h.01l.83-2.64h.7l-1.18 3.3h-.72Zm3.57.07c-.96 0-1.55-.67-1.55-1.7 0-1.04.6-1.73 1.52-1.73s1.5.67 1.5 1.66v.22h-2.34c.01.63.35.99.89.99.4 0 .67-.2.75-.45l.01-.03h.64v.04c-.1.52-.62 1-1.42 1Zm-.03-2.87c-.44 0-.77.3-.83.84h1.65c-.06-.57-.38-.84-.82-.84Zm2.02 2.8v-3.3h.67v.5h.02c.17-.33.51-.56 1-.56.73 0 1.15.47 1.15 1.23v2.13h-.68v-2c0-.5-.23-.78-.7-.78-.48 0-.79.35-.79.86v1.92h-.67Zm3.5 0v-3.3h.67v.5h.02c.17-.33.5-.56 1-.56.73 0 1.14.47 1.14 1.23v2.13h-.68v-2c0-.5-.23-.78-.7-.78s-.78.35-.78.86v1.92h-.68Zm3.54-1.53v-.61h2.01v.61h-2.01Zm3.96 1.6c-.84 0-1.38-.67-1.38-1.72 0-1.05.55-1.7 1.38-1.7.46 0 .84.23 1.04.61V57.4h.69v4.52h-.68v-.56h-.01c-.2.39-.56.63-1.04.63Zm.18-.59c.51 0 .87-.44.87-1.13 0-.68-.36-1.13-.87-1.13-.53 0-.86.43-.86 1.13s.33 1.13.86 1.13Zm2.61-3.28a.4.4 0 0 1-.4-.4c0-.2.18-.38.4-.38a.39.39 0 1 1 0 .78Zm-.34 3.8v-3.3h.68v3.3h-.68Zm2.35.06c-.66 0-1.1-.4-1.1-1 0-.58.44-.93 1.22-.97l.9-.06v-.25c0-.36-.24-.58-.66-.58-.39 0-.63.19-.69.45v.03h-.64v-.04c.05-.56.54-1 1.35-1 .8 0 1.32.43 1.32 1.09v2.27h-.68v-.52h-.02c-.19.35-.57.58-1 .58Zm-.42-1.01c0 .29.24.47.6.47.48 0 .84-.33.84-.76v-.25l-.8.05c-.42.02-.64.2-.64.48Zm4.22 2.11c-.85 0-1.38-.39-1.48-.9v-.02h.66l.02.02c.09.21.37.36.8.36.53 0 .83-.3.83-.75v-.45h-.01c-.2.35-.57.58-1.04.58-.83 0-1.37-.65-1.37-1.67 0-1.04.55-1.69 1.38-1.69.47 0 .83.25 1.03.62h.01v-.56h.68v3.2c0 .76-.58 1.26-1.51 1.26Zm-.03-1.7c.52 0 .86-.44.86-1.12 0-.68-.35-1.12-.86-1.12-.54 0-.87.43-.87 1.11 0 .7.33 1.12.87 1.12Zm2.21.54v-3.3h.68v.57h.01c.11-.39.39-.63.76-.63.1 0 .18.02.24.03v.63a.97.97 0 0 0-.3-.04c-.44 0-.71.28-.71.77v1.97h-.68Zm3 .06c-.65 0-1.1-.4-1.1-1 0-.58.45-.93 1.23-.97l.9-.06v-.25c0-.36-.24-.58-.66-.58-.39 0-.63.19-.69.45v.03h-.64v-.04c.05-.56.54-1 1.35-1 .8 0 1.32.43 1.32 1.09v2.27h-.68v-.52h-.02c-.19.35-.57.58-1 .58Zm-.41-1.01c0 .29.24.47.6.47.48 0 .84-.33.84-.76v-.25l-.8.05c-.42.02-.64.2-.64.48Zm2.77.95v-3.3h.68v.51h.02a.94.94 0 0 1 .9-.57c.46 0 .8.24.92.65h.02c.17-.4.56-.65 1.03-.65.65 0 1.07.43 1.07 1.1v2.26h-.68v-2.1c0-.43-.22-.68-.63-.68-.4 0-.68.3-.68.72v2.06h-.66v-2.15c0-.39-.24-.63-.62-.63-.4 0-.69.32-.69.74v2.04h-.68Zm5.68.05a.4.4 0 0 1-.4-.41.4.4 0 0 1 .4-.41.4.4 0 0 1 .41.4.4.4 0 0 1-.4.42Zm2.3.02c-.83 0-1.31-.41-1.38-1.01v-.03h.67v.03c.06.3.3.48.7.48.41 0 .66-.17.66-.43 0-.22-.12-.34-.47-.43l-.54-.12c-.63-.14-.94-.44-.94-.92 0-.6.51-1 1.27-1 .78 0 1.25.44 1.29 1v.03h-.64v-.02c-.04-.29-.27-.49-.65-.49-.36 0-.59.18-.59.44 0 .2.13.34.49.43l.53.12c.68.16.93.42.93.9 0 .6-.56 1.02-1.34 1.02Zm2.76-.07-1.19-3.3h.72l.83 2.64h.02l.82-2.64h.7L87 61.91h-.73Zm3.62 1.16c-.85 0-1.39-.39-1.49-.9v-.02h.67l.01.02c.1.21.38.36.8.36.54 0 .84-.3.84-.75v-.45h-.02c-.19.35-.56.58-1.03.58-.83 0-1.38-.65-1.38-1.67 0-1.04.56-1.69 1.4-1.69.46 0 .82.25 1.01.62h.02v-.56h.68v3.2c0 .76-.58 1.26-1.51 1.26Zm-.03-1.7c.51 0 .86-.44.86-1.12 0-.68-.35-1.12-.86-1.12-.54 0-.87.43-.87 1.11 0 .7.33 1.12.87 1.12Z" />
        </g>
        <g opacity=".8">
            <rect width="35.93" height="41.06" x="187.18" y="-31" fill="#E6E6E6" rx="1.71" />
            <g filter="url(#e)">
                <path fill="#fff" d="M191.45-26.72h27.37v32.5h-27.37z" />
                <path fill="#fff" d="M193.38-24.8h23.52V3.86h-23.52z" />
                <path stroke="#E7E7E7" stroke-width=".43" d="M193.38-24.8h23.52V3.86h-23.52z" />
            </g>
            <rect width="46.28" height="10.13" x="182" y="11.34" fill="#2565D9" rx="1.71" />
            <path fill="#fff"
                d="M184.57 18.9v-3.29h.68v.5h.01c.18-.33.52-.56 1.01-.56.73 0 1.14.47 1.14 1.23v2.13h-.67v-2c0-.5-.24-.78-.7-.78-.48 0-.79.35-.79.86v1.92h-.68Zm4.9.08c-.96 0-1.55-.67-1.55-1.7 0-1.04.6-1.73 1.52-1.73.93 0 1.5.67 1.5 1.65v.23h-2.34c.01.63.35 1 .9 1 .4 0 .66-.22.74-.46l.01-.03h.65l-.01.04c-.1.52-.62 1-1.41 1Zm-.03-2.87c-.43 0-.77.3-.83.84h1.65c-.05-.57-.37-.84-.82-.84Zm3.17 2.87c-.65 0-.96-.28-.96-.94v-1.89h-.47v-.54h.47v-.85h.7v.85h.6v.54h-.6V18c0 .34.14.44.43.44l.18-.02v.53c-.08 0-.2.03-.35.03Zm1.56-.07-.9-3.3h.67l.6 2.6h.01l.69-2.6h.65l.69 2.6h.02l.6-2.6h.67l-.9 3.3h-.7l-.7-2.47h-.02l-.68 2.47h-.7Zm5.5.07c-.94 0-1.55-.66-1.55-1.72s.62-1.7 1.56-1.7c.94 0 1.56.64 1.56 1.7s-.62 1.71-1.56 1.71Zm.01-.57c.53 0 .87-.42.87-1.15s-.34-1.14-.88-1.14c-.51 0-.86.41-.86 1.14s.34 1.15.87 1.15Zm2.08.5v-3.3h.68v.57h.02c.1-.39.38-.63.75-.63.1 0 .19.02.24.03v.63a.97.97 0 0 0-.3-.04c-.44 0-.7.28-.7.77v1.97h-.69Zm2.15 0v-4.52h.67v2.63h.02l1.32-1.4h.8l-1.36 1.42 1.41 1.87h-.79l-1.11-1.47-.29.28v1.19h-.67Zm3.08-1.53v-.61h2.02v.61h-2.02Zm2.78 0v-.61h2.02v.61h-2.01Zm3.72 1.53v-3.83h-.01l-1.18.82v-.67l1.19-.84h.69v4.52h-.69Zm2.03.05a.4.4 0 0 1-.41-.41.4.4 0 0 1 .41-.41.4.4 0 0 1 .41.4.4.4 0 0 1-.41.42Zm2.29.02c-.82 0-1.3-.41-1.38-1.01v-.03h.67v.03c.07.3.3.48.71.48s.66-.17.66-.43c0-.22-.12-.34-.48-.43l-.54-.12c-.62-.14-.93-.44-.93-.92 0-.6.51-1 1.27-1 .78 0 1.25.44 1.28 1v.03h-.63v-.02c-.04-.29-.27-.49-.65-.49-.36 0-.6.18-.6.44 0 .2.14.34.5.43l.53.12c.67.16.93.42.93.9 0 .6-.56 1.02-1.34 1.02Zm2.77-.07-1.2-3.3h.73l.83 2.64h.01l.83-2.64h.7l-1.18 3.3h-.72Zm3.61 1.16c-.84 0-1.38-.39-1.48-.9v-.02h.67v.02c.1.21.38.36.8.36.55 0 .84-.3.84-.75v-.45h-.01c-.19.35-.56.58-1.04.58-.82 0-1.37-.65-1.37-1.67 0-1.04.55-1.69 1.39-1.69.46 0 .82.25 1.02.62h.02v-.56h.67v3.2c0 .76-.58 1.26-1.5 1.26Zm-.03-1.7c.52 0 .87-.44.87-1.12 0-.68-.35-1.12-.87-1.12-.53 0-.87.43-.87 1.11 0 .7.34 1.12.87 1.12Z" />
        </g>
        <rect width="23.87" height="27.28" x="50.49" y="103" fill="#E6E6E6" rx="1.14" />
        <g filter="url(#f)">
            <path fill="#fff" d="M53.33 105.84h18.19v21.6h-18.2z" />
            <path fill="#fff" d="M54.61 107.12h15.63v19.04H54.61z" />
            <path stroke="#E7E7E7" stroke-width=".28" d="M54.61 107.12h15.63v19.04H54.61z" />
            <g clip-path="url(#g)">
                <mask id="h" width="15" height="15" x="55" y="109" maskUnits="userSpaceOnUse" style="mask-type:alpha">
                    <path fill="#000"
                        d="M65.67 119.45a2.61 2.61 0 0 1-1.92-.81l-1.32-1.37-1.32 1.37a2.75 2.75 0 0 1-3.88 0 3 3 0 0 1-.77-2c0-.75.29-1.47.81-2a2.7 2.7 0 0 1 3.84 0l1.32 1.36 1.32-1.37a2.7 2.7 0 0 1 3.84 0 2.91 2.91 0 0 1 0 4c-.51.52-1.2.8-1.92.82Zm-2.64-2.82 1.32 1.41a1.88 1.88 0 0 0 2.64 0 2.1 2.1 0 0 0 0-2.81 1.88 1.88 0 0 0-2.64 0l-1.32 1.4Zm-3.84-1.96a1.77 1.77 0 0 0-1.32.56 2.06 2.06 0 0 0 0 2.81 1.88 1.88 0 0 0 2.64 0l1.32-1.4-1.32-1.41a2.03 2.03 0 0 0-1.32-.56Z" />
                </mask>
                <g mask="url(#h)">
                    <path fill="#000" d="M55.6 109.82h13.64v13.64H55.6z" />
                </g>
            </g>
        </g>
        <rect width="26.84" height="6.41" x="49" y="131.13" fill="#2565D9" rx="1.14" />
        <path fill="#fff"
            d="M51.96 135.88c-.64 0-1.03-.44-1.03-1.13s.4-1.15 1-1.15c.62 0 1 .45 1 1.1v.16h-1.55c0 .4.23.65.59.65.27 0 .44-.14.5-.3v-.02h.43v.03c-.07.34-.41.66-.94.66Zm-.02-1.9c-.3 0-.52.2-.56.56h1.1c-.04-.38-.25-.57-.54-.57Zm2.15 1.9c-.55 0-.91-.44-.91-1.14s.36-1.14.91-1.14c.31 0 .56.16.7.42v-1.19h.45v3h-.45v-.37a.74.74 0 0 1-.7.42Zm.12-.39c.34 0 .58-.3.58-.75 0-.46-.24-.75-.58-.75-.35 0-.57.29-.57.75 0 .47.22.75.57.75Zm2.26.39c-.43 0-.64-.18-.64-.62V134h-.31v-.35h.31v-.57h.46v.57h.41v.35h-.41v1.23c0 .23.1.3.29.3l.12-.02v.35l-.23.02Zm.62-1.06v-.4h1.34v.4h-1.34Zm1.83 1.02v-3h.45v3h-.45Zm1.86.04c-.63 0-1.04-.44-1.04-1.14s.41-1.14 1.03-1.14c.63 0 1.05.44 1.05 1.14s-.42 1.14-1.04 1.14Zm0-.38c.35 0 .58-.28.58-.76s-.23-.76-.59-.76c-.34 0-.57.28-.57.76 0 .49.23.76.58.76Zm2.32.38c-.63 0-1.04-.44-1.04-1.14s.42-1.14 1.04-1.14c.63 0 1.04.44 1.04 1.14s-.41 1.14-1.04 1.14Zm0-.38c.36 0 .58-.28.58-.76s-.23-.76-.58-.76c-.34 0-.58.28-.58.76 0 .49.23.76.59.76Zm1.39 1.06v-2.91h.45v.37h.01a.74.74 0 0 1 .68-.42c.56 0 .92.44.92 1.14s-.36 1.14-.91 1.14a.75.75 0 0 1-.7-.41v1.1h-.45Zm1.03-1.07c.35 0 .57-.28.57-.75s-.22-.75-.57-.75c-.34 0-.58.3-.58.75 0 .46.24.75.58.75Zm1.53.38a.27.27 0 0 1-.27-.28c0-.15.12-.27.27-.27.15 0 .27.12.27.27 0 .16-.12.28-.27.28Zm1.52 0c-.54 0-.86-.26-.91-.66v-.02h.44v.02c.05.2.2.32.47.32.28 0 .44-.11.44-.29 0-.14-.08-.22-.32-.28l-.35-.08c-.42-.1-.63-.3-.63-.61 0-.4.34-.67.85-.67.52 0 .83.3.85.67v.02H69v-.01c-.03-.2-.18-.33-.43-.33-.24 0-.4.12-.4.3 0 .13.1.22.33.28l.36.08c.44.1.61.28.61.6 0 .4-.37.67-.89.67Zm1.84-.03-.79-2.2h.48l.55 1.76h.01l.55-1.75h.47l-.79 2.19h-.48Zm2.4.77c-.56 0-.92-.26-.98-.6V136h.44v.02c.07.14.26.24.54.24.36 0 .56-.2.56-.5v-.3h-.01a.75.75 0 0 1-.7.39c-.54 0-.9-.43-.9-1.12 0-.69.36-1.12.92-1.12.3 0 .55.17.68.42v-.37h.46v2.13c0 .5-.39.83-1 .83Zm-.02-1.14c.35 0 .58-.29.58-.74s-.24-.74-.58-.74c-.35 0-.58.29-.58.74 0 .46.23.74.58.74Z" />
        <rect width="20.18" height="23.06" x="69" y="152" fill="#E6E6E6" rx=".96" />
        <g filter="url(#i)">
            <path fill="#fff" d="M71.4 154.4h15.37v18.26H71.4z" />
            <path fill="#fff" d="M72.48 155.48h13.21v16.09H72.48z" />
            <path stroke="#E7E7E7" stroke-width=".24" d="M72.48 155.48h13.21v16.09H72.48z" />
            <g clip-path="url(#j)">
                <mask id="k" width="12" height="13" x="73" y="157" maskUnits="userSpaceOnUse" style="mask-type:alpha">
                    <path fill="#000"
                        d="M79.09 158.49a5.05 5.05 0 1 0 0 10.09 5.05 5.05 0 0 0 0-10.1Zm0 9.36a4.32 4.32 0 1 1 0-8.64 4.32 4.32 0 0 1 0 8.64Z" />
                    <path fill="#000"
                        d="M77.47 161.73a.9.9 0 1 0 0 1.8.9.9 0 0 0 0-1.8Zm3.24 0a.9.9 0 1 0 0 1.8.9.9 0 0 0 0-1.8Zm-4.14 3.24a2.93 2.93 0 0 0 5.04 0h-5.04Z" />
                </mask>
                <g mask="url(#k)">
                    <path fill="#000" d="M73.32 157.76h11.53v11.53H73.32z" />
                </g>
            </g>
        </g>
        <rect width="16.4" height="5.88" x="70.89" y="175.78" fill="#2565D9" rx=".96" />
        <path fill="#fff"
            d="M72.89 180.22v-1.54h-.26v-.3h.26v-.2c0-.36.16-.53.54-.53l.21.01v.28h-.13c-.17 0-.25.08-.25.24v.2h.38v.3h-.37v1.54h-.38Zm1.49.04c-.37 0-.62-.23-.62-.56 0-.33.25-.53.69-.55l.5-.03v-.14c0-.2-.13-.33-.37-.33-.22 0-.35.1-.38.25v.02h-.37v-.02c.03-.32.3-.56.76-.56s.74.24.74.6v1.28h-.38v-.29c-.11.2-.33.33-.57.33Zm-.24-.57c0 .16.14.26.34.26.27 0 .47-.18.47-.42v-.15l-.45.03c-.23.02-.36.12-.36.28Zm2.36.57c-.54 0-.88-.37-.88-.96 0-.6.34-.96.87-.96.48 0 .77.3.8.65v.01h-.36V179a.41.41 0 0 0-.43-.34c-.3 0-.5.25-.5.65s.2.64.5.64c.23 0 .38-.13.43-.34h.36c-.04.38-.35.66-.8.66Zm1.85 0c-.54 0-.87-.37-.87-.96 0-.58.34-.96.85-.96.52 0 .84.37.84.93v.12h-1.3c0 .35.19.56.5.56.22 0 .37-.12.41-.26l.01-.01h.36v.02c-.06.3-.35.56-.8.56Zm-.01-1.61c-.25 0-.44.16-.47.47h.93c-.04-.31-.22-.47-.46-.47Zm1.34 1.6a.23.23 0 0 1-.23-.23c0-.13.1-.23.23-.23s.23.1.23.23-.1.23-.23.23Zm1.29.01c-.46 0-.73-.23-.77-.57v-.01h.37v.01c.04.18.17.28.4.28s.37-.1.37-.25c0-.12-.07-.19-.27-.24l-.3-.06c-.35-.09-.53-.25-.53-.52 0-.34.3-.56.72-.56.44 0 .7.24.72.56v.02h-.36v-.01c-.02-.17-.15-.28-.36-.28-.2 0-.33.1-.33.25 0 .11.07.19.27.24l.3.06c.38.1.52.24.52.5v.01c0 .34-.31.57-.75.57Zm1.55-.04-.66-1.85h.4l.47 1.48.47-1.48h.4l-.67 1.85h-.4Zm2.03.66c-.47 0-.77-.22-.83-.5v-.02h.38v.01c.05.12.21.2.45.2.3 0 .47-.16.47-.42v-.25c-.11.2-.32.32-.59.32-.46 0-.77-.36-.77-.94s.31-.94.78-.94c.26 0 .46.14.57.35h.01v-.32h.38v1.8c0 .42-.32.7-.85.7Zm-.01-.97c.29 0 .48-.24.48-.62s-.2-.63-.48-.63c-.3 0-.5.25-.5.63 0 .39.2.63.5.63Z" />
        <rect width="23.87" height="27.28" x="109.49" y="90" fill="#E6E6E6" rx="1.14" />
        <g filter="url(#l)">
            <path fill="#fff" d="M112.33 92.84h18.19v21.6h-18.2z" />
            <path fill="#fff" d="M113.61 94.12h15.63v19.04h-15.63z" />
            <path stroke="#E7E7E7" stroke-width=".28" d="M113.61 94.12h15.63v19.04h-15.63z" />
            <g clip-path="url(#m)">
                <mask id="n" width="15" height="15" x="114" y="96" maskUnits="userSpaceOnUse" style="mask-type:alpha">
                    <path fill="#000"
                        d="M127.39 103.43a2.79 2.79 0 0 0-2.22-2.72 3.84 3.84 0 0 0-7.5 0 2.79 2.79 0 0 0-2.22 2.72c0 .68.26 1.34.72 1.85a2.55 2.55 0 0 0 1.84 4.33h4.69a2.56 2.56 0 0 0 2.54-2.24c.05-.41 0-.83-.15-1.22a2.77 2.77 0 0 0 2.3-2.72Zm-4.7 5.32h-4.68a1.7 1.7 0 0 1-.29-3.38l.29-.04.06-.28a2.35 2.35 0 0 1 3.75-1.32c.42.33.7.8.82 1.32l.06.28.29.05a1.7 1.7 0 0 1-.3 3.37Zm1.93-3.4h-.03a2.54 2.54 0 0 0-1.19-.75 3.2 3.2 0 0 0-6.1 0c-.14.04-.3.1-.43.17a1.88 1.88 0 0 1-.05-2.64c.32-.35.77-.57 1.25-.61l.35-.03.04-.35a2.98 2.98 0 0 1 5.92 0l.04.35.35.03a1.92 1.92 0 0 1-.15 3.83Z" />
                </mask>
                <g mask="url(#n)">
                    <path fill="#000" d="M114.6 96.82h13.64v13.64H114.6z" />
                </g>
            </g>
        </g>
        <rect width="26.84" height="6.41" x="108" y="118.13" fill="#2565D9" rx="1.14" />
        <path fill="#fff"
            d="M110.96 122.88c-.64 0-1.03-.44-1.03-1.13s.4-1.15 1-1.15c.62 0 1 .45 1 1.1v.16h-1.55c0 .4.23.65.59.65.27 0 .44-.14.5-.3v-.02h.43v.03c-.07.34-.41.66-.94.66Zm-.02-1.9c-.3 0-.52.2-.56.56h1.1c-.04-.38-.25-.57-.54-.57Zm2.15 1.9c-.55 0-.91-.44-.91-1.14s.36-1.14.91-1.14c.31 0 .56.16.7.42v-1.19h.45v3h-.45v-.36a.74.74 0 0 1-.7.4Zm.12-.39c.34 0 .58-.3.58-.75s-.24-.75-.58-.75c-.35 0-.57.29-.57.75 0 .47.22.75.57.75Zm2.26.39c-.43 0-.64-.18-.64-.62V121h-.31v-.35h.31v-.57h.46v.57h.41v.35h-.41v1.23c0 .22.1.3.29.3a1 1 0 0 0 .12-.02v.35l-.23.02Zm.62-1.06v-.4h1.34v.4h-1.34Zm1.83 1.02v-3h.45v3h-.45Zm1.86.04c-.63 0-1.04-.44-1.04-1.14s.41-1.14 1.04-1.14c.62 0 1.03.44 1.03 1.14s-.4 1.14-1.03 1.14Zm0-.38c.35 0 .58-.28.58-.76s-.23-.76-.58-.76-.58.28-.58.76c0 .49.23.76.58.76Zm2.32.38c-.63 0-1.03-.44-1.03-1.14s.4-1.14 1.03-1.14 1.04.44 1.04 1.14-.41 1.14-1.04 1.14Zm0-.38c.36 0 .58-.28.58-.76s-.23-.76-.58-.76c-.34 0-.57.28-.57.76 0 .49.22.76.58.76Zm1.39 1.06v-2.91h.45v.37h.01a.74.74 0 0 1 .68-.42c.56 0 .92.44.92 1.14s-.36 1.14-.91 1.14a.75.75 0 0 1-.69-.41h-.01v1.1h-.45Zm1.03-1.07c.35 0 .57-.28.57-.75 0-.46-.22-.75-.57-.75-.34 0-.58.3-.58.75 0 .46.24.75.58.75Zm1.53.38a.27.27 0 0 1-.27-.28c0-.15.12-.27.27-.27a.27.27 0 1 1 0 .55Zm1.52 0c-.54 0-.86-.26-.91-.66v-.02h.44v.02c.05.2.2.32.48.32.27 0 .43-.11.43-.29 0-.14-.08-.22-.32-.28l-.35-.08c-.42-.1-.63-.3-.63-.61 0-.4.35-.67.85-.67.52 0 .83.3.85.67v.02H128v-.01c-.03-.2-.18-.33-.43-.33-.24 0-.4.12-.4.3 0 .13.1.22.33.28l.36.08c.44.1.61.28.61.6 0 .4-.37.67-.89.67Zm1.84-.04-.79-2.18h.48l.55 1.75h.01l.55-1.75h.47l-.79 2.18h-.48Zm2.4.78c-.56 0-.92-.26-.98-.6V123h.44v.02c.07.14.26.23.54.23.36 0 .56-.19.56-.5v-.3h-.02a.75.75 0 0 1-.68.4c-.55 0-.91-.43-.91-1.12 0-.69.36-1.12.92-1.12.3 0 .55.17.67.42h.02v-.37h.45v2.13c0 .5-.39.83-1 .83Zm-.02-1.14c.35 0 .58-.29.58-.74s-.24-.74-.58-.74c-.35 0-.57.29-.57.74 0 .46.22.74.57.74Z" />
        <g opacity=".8">
            <rect width="30.09" height="34.39" x="128.25" y="25" fill="#E6E6E6" rx="1.43" />
            <g filter="url(#o)">
                <path fill="#fff" d="M131.83 28.58h22.92V55.8h-22.92z" />
                <path fill="#fff" d="M133.44 30.19h19.7v24h-19.7z" />
                <path stroke="#E7E7E7" stroke-width=".36" d="M133.44 30.19h19.7v24h-19.7z" />
                <g clip-path="url(#p)">
                    <mask id="q" width="18" height="18" x="134" y="33" maskUnits="userSpaceOnUse"
                        style="mask-type:alpha">
                        <path fill="#000"
                            d="M149.74 48.64V36.82h-4.3v11.82h-2.15v-7.52H139v7.52h-2.15V34.67h-1.07v13.97a1.07 1.07 0 0 0 1.07 1.07h13.97v-1.07h-1.07Zm-3.23-10.75h2.15v5.38h-2.15v-5.38Zm-6.44 4.3h2.15v3.23h-2.15v-3.23Z" />
                    </mask>
                    <g mask="url(#q)">
                        <path fill="#000" d="M134.69 33.6h17.19v17.19h-17.19z" />
                    </g>
                </g>
            </g>
            <rect width="46.58" height="8.3" x="120" y="60.46" fill="#2565D9" rx="1.43" />
            <path fill="#fff"
                d="M123.66 66.66c-.81 0-1.31-.55-1.31-1.43 0-.88.51-1.43 1.3-1.43.7 0 1.14.45 1.18.97v.02h-.53v-.02a.62.62 0 0 0-.65-.5c-.44 0-.73.37-.73.96 0 .6.3.96.73.96.35 0 .58-.2.64-.5v-.02h.55v.02c-.06.55-.52.97-1.19.97Zm1.6-.05v-3.79h.57v1.48h.02c.14-.32.44-.5.85-.5.6 0 .98.44.98 1.1v1.71h-.57v-1.6c0-.45-.23-.73-.63-.73-.39 0-.65.3-.65.73v1.6h-.56Zm3.78.05c-.55 0-.92-.34-.92-.83v-.01c0-.48.37-.77 1.03-.81l.75-.05v-.2c0-.3-.2-.5-.55-.5-.33 0-.53.16-.58.38v.03h-.54v-.03c.04-.48.45-.84 1.13-.84.68 0 1.1.35 1.1.9v1.91h-.56v-.44h-.02a.95.95 0 0 1-.84.49Zm-.35-.85c0 .24.2.4.5.4.4 0 .7-.27.7-.63v-.22l-.67.04c-.34.02-.53.17-.53.4v.01Zm2.33.8v-2.76h.56v.47h.02c.09-.32.32-.52.63-.52l.2.02v.53a.8.8 0 0 0-.26-.04c-.36 0-.59.24-.59.65v1.65h-.56Zm2.85.05c-.55 0-.81-.23-.81-.78V64.3h-.4v-.45h.4v-.72h.58v.72h.52v.45h-.52v1.55c0 .28.13.36.36.36h.16v.43l-.3.02Zm.78-1.33v-.51h1.69v.5h-1.7Zm3.32 1.33c-.69 0-1.1-.34-1.15-.84v-.02h.56v.02c.06.26.25.4.6.4.34 0 .54-.14.54-.36 0-.18-.1-.28-.4-.35l-.45-.1c-.52-.13-.78-.38-.78-.78 0-.5.43-.83 1.07-.83.65 0 1.04.36 1.07.83v.03h-.53v-.02c-.04-.24-.22-.4-.54-.4-.3 0-.5.14-.5.36 0 .17.11.29.4.36l.46.1c.56.13.78.36.78.75 0 .5-.48.85-1.13.85Zm2.53 0c-.54 0-.8-.23-.8-.78V64.3h-.4v-.45h.4v-.72h.58v.72h.51v.45h-.51v1.55c0 .28.12.36.36.36h.15v.43l-.28.02Zm1.53 0c-.55 0-.92-.34-.92-.83v-.01c0-.48.37-.77 1.03-.81l.75-.05v-.2c0-.3-.2-.5-.55-.5-.33 0-.53.16-.58.38v.03h-.54v-.03c.04-.48.46-.84 1.13-.84.68 0 1.1.35 1.1.9v1.91h-.56v-.44h-.01a.95.95 0 0 1-.85.49Zm-.35-.85c0 .24.2.4.5.4.4 0 .7-.27.7-.63v-.22l-.67.04c-.34.02-.53.17-.53.4v.01Zm3.51.85c-.8 0-1.3-.55-1.3-1.43 0-.88.5-1.43 1.3-1.43.7 0 1.14.45 1.18.97v.02h-.53l-.01-.02a.62.62 0 0 0-.64-.5c-.44 0-.73.37-.73.96 0 .6.3.96.73.96.35 0 .57-.2.64-.5v-.02h.55v.02c-.06.55-.52.97-1.19.97Zm1.62-.05v-3.79h.57v2.2h.01l1.11-1.17h.67l-1.14 1.2 1.18 1.56h-.66l-.93-1.23-.24.24v.99h-.57Zm3.73.05c-.8 0-1.3-.55-1.3-1.42 0-.87.5-1.44 1.27-1.44.78 0 1.25.55 1.25 1.38v.2h-1.95c0 .52.3.82.75.82.33 0 .55-.17.63-.38v-.02h.54v.03c-.1.44-.52.83-1.19.83Zm-.02-2.4c-.37 0-.66.25-.7.71h1.38c-.05-.47-.31-.7-.68-.7Zm2.71 2.4c-.7 0-1.15-.55-1.15-1.43 0-.88.46-1.43 1.15-1.43.39 0 .7.2.87.52h.01v-1.5h.57v3.79h-.57v-.47h-.01a.94.94 0 0 1-.87.52Zm.15-.48c.43 0 .73-.38.73-.95s-.3-.95-.73-.95c-.44 0-.72.36-.72.95s.28.95.72.95Zm2.2.47a.34.34 0 0 1-.34-.34c0-.2.15-.35.34-.35.2 0 .35.15.35.35 0 .19-.15.34-.35.34Zm1.92.01c-.69 0-1.1-.34-1.15-.84v-.02h.56v.02c.06.26.25.4.6.4.34 0 .54-.14.54-.36 0-.18-.1-.28-.4-.35l-.45-.1c-.52-.13-.78-.38-.78-.78 0-.5.43-.83 1.06-.83.66 0 1.05.36 1.08.83v.03h-.53v-.02c-.04-.24-.23-.4-.55-.4-.3 0-.5.14-.5.36 0 .17.12.29.42.36l.45.1c.56.13.78.36.78.75 0 .5-.48.85-1.13.85Zm2.32-.05-1-2.76h.6l.7 2.2h.01l.7-2.2h.59l-1 2.76h-.6Zm3.03.97c-.71 0-1.16-.33-1.25-.75v-.02h.56l.01.02c.08.18.32.3.67.3.45 0 .7-.24.7-.63v-.38a.95.95 0 0 1-.88.5c-.69 0-1.15-.55-1.15-1.41 0-.87.47-1.41 1.17-1.41.38 0 .69.2.85.52h.01v-.47h.57v2.68c0 .63-.49 1.05-1.26 1.05Zm-.03-1.43c.44 0 .72-.36.72-.93 0-.57-.29-.94-.72-.94-.45 0-.73.36-.73.93 0 .58.28.94.73.94Z" />
        </g>
    </g>
    <defs>
        <clipPath id="a">
            <path fill="#fff" d="M0 0h316v182H0z" />
        </clipPath>
        <clipPath id="c">
            <path fill="#fff" d="M46.37 22.27H66.9V42.8H46.37z" />
        </clipPath>
        <clipPath id="g">
            <path fill="#fff" d="M55.6 109.82h13.64v13.64H55.6z" />
        </clipPath>
        <clipPath id="j">
            <path fill="#fff" d="M73.32 157.76h11.53v11.53H73.32z" />
        </clipPath>
        <clipPath id="m">
            <path fill="#fff" d="M114.6 96.82h13.64v13.64H114.6z" />
        </clipPath>
        <clipPath id="p">
            <path fill="#fff" d="M134.7 33.6h17.18v17.19H134.7z" />
        </clipPath>
        <filter id="b" width="29.08" height="34.22" x="42.1" y="16.28" color-interpolation-filters="sRGB"
            filterUnits="userSpaceOnUse">
            <feFlood flood-opacity="0" result="BackgroundImageFix" />
            <feColorMatrix in="SourceAlpha" result="hardAlpha" values="0 0 0 0 0 0 0 0 0 0 0 0 0 0 0 0 0 0 127 0" />
            <feOffset dy=".86" />
            <feGaussianBlur stdDeviation=".43" />
            <feComposite in2="hardAlpha" operator="out" />
            <feColorMatrix values="0 0 0 0 0 0 0 0 0 0 0 0 0 0 0 0 0 0 0.25 0" />
            <feBlend in2="BackgroundImageFix" result="effect1_dropShadow_1608_23222" />
            <feBlend in="SourceGraphic" in2="effect1_dropShadow_1608_23222" result="shape" />
        </filter>
        <filter id="e" width="29.08" height="34.22" x="190.6" y="-26.72" color-interpolation-filters="sRGB"
            filterUnits="userSpaceOnUse">
            <feFlood flood-opacity="0" result="BackgroundImageFix" />
            <feColorMatrix in="SourceAlpha" result="hardAlpha" values="0 0 0 0 0 0 0 0 0 0 0 0 0 0 0 0 0 0 127 0" />
            <feOffset dy=".86" />
            <feGaussianBlur stdDeviation=".43" />
            <feComposite in2="hardAlpha" operator="out" />
            <feColorMatrix values="0 0 0 0 0 0 0 0 0 0 0 0 0 0 0 0 0 0 0.25 0" />
            <feBlend in2="BackgroundImageFix" result="effect1_dropShadow_1608_23222" />
            <feBlend in="SourceGraphic" in2="effect1_dropShadow_1608_23222" result="shape" />
        </filter>
        <filter id="f" width="19.32" height="22.73" x="52.76" y="105.84" color-interpolation-filters="sRGB"
            filterUnits="userSpaceOnUse">
            <feFlood flood-opacity="0" result="BackgroundImageFix" />
            <feColorMatrix in="SourceAlpha" result="hardAlpha" values="0 0 0 0 0 0 0 0 0 0 0 0 0 0 0 0 0 0 127 0" />
            <feOffset dy=".57" />
            <feGaussianBlur stdDeviation=".28" />
            <feComposite in2="hardAlpha" operator="out" />
            <feColorMatrix values="0 0 0 0 0 0 0 0 0 0 0 0 0 0 0 0 0 0 0.25 0" />
            <feBlend in2="BackgroundImageFix" result="effect1_dropShadow_1608_23222" />
            <feBlend in="SourceGraphic" in2="effect1_dropShadow_1608_23222" result="shape" />
        </filter>
        <filter id="i" width="16.33" height="19.22" x="70.92" y="154.4" color-interpolation-filters="sRGB"
            filterUnits="userSpaceOnUse">
            <feFlood flood-opacity="0" result="BackgroundImageFix" />
            <feColorMatrix in="SourceAlpha" result="hardAlpha" values="0 0 0 0 0 0 0 0 0 0 0 0 0 0 0 0 0 0 127 0" />
            <feOffset dy=".48" />
            <feGaussianBlur stdDeviation=".24" />
            <feComposite in2="hardAlpha" operator="out" />
            <feColorMatrix values="0 0 0 0 0 0 0 0 0 0 0 0 0 0 0 0 0 0 0.25 0" />
            <feBlend in2="BackgroundImageFix" result="effect1_dropShadow_1608_23222" />
            <feBlend in="SourceGraphic" in2="effect1_dropShadow_1608_23222" result="shape" />
        </filter>
        <filter id="l" width="19.32" height="22.73" x="111.76" y="92.84" color-interpolation-filters="sRGB"
            filterUnits="userSpaceOnUse">
            <feFlood flood-opacity="0" result="BackgroundImageFix" />
            <feColorMatrix in="SourceAlpha" result="hardAlpha" values="0 0 0 0 0 0 0 0 0 0 0 0 0 0 0 0 0 0 127 0" />
            <feOffset dy=".57" />
            <feGaussianBlur stdDeviation=".28" />
            <feComposite in2="hardAlpha" operator="out" />
            <feColorMatrix values="0 0 0 0 0 0 0 0 0 0 0 0 0 0 0 0 0 0 0.25 0" />
            <feBlend in2="BackgroundImageFix" result="effect1_dropShadow_1608_23222" />
            <feBlend in="SourceGraphic" in2="effect1_dropShadow_1608_23222" result="shape" />
        </filter>
        <filter id="o" width="24.36" height="28.65" x="131.11" y="28.58" color-interpolation-filters="sRGB"
            filterUnits="userSpaceOnUse">
            <feFlood flood-opacity="0" result="BackgroundImageFix" />
            <feColorMatrix in="SourceAlpha" result="hardAlpha" values="0 0 0 0 0 0 0 0 0 0 0 0 0 0 0 0 0 0 127 0" />
            <feOffset dy=".72" />
            <feGaussianBlur stdDeviation=".36" />
            <feComposite in2="hardAlpha" operator="out" />
            <feColorMatrix values="0 0 0 0 0 0 0 0 0 0 0 0 0 0 0 0 0 0 0.25 0" />
            <feBlend in2="BackgroundImageFix" result="effect1_dropShadow_1608_23222" />
            <feBlend in="SourceGraphic" in2="effect1_dropShadow_1608_23222" result="shape" />
        </filter>
    </defs>
</svg>